<svg xmlns="http://www.w3.org/2000/svg" xmlns:xlink="http://www.w3.org/1999/xlink" version="1.1" x="0px" y="0px" viewBox="0 0 100 100" enable-background="new 0 0 100 100" xml:space="preserve" style="max-width:100%" height="100%"><path d="M81.032,50c0,1.776-1.439,3.215-3.215,3.215H17.795c-1.776,0-3.215-1.439-3.215-3.215l0,0c0-1.776,1.439-3.215,3.215-3.215  h60.023C79.593,46.785,81.032,48.224,81.032,50L81.032,50z" style="" fill="currentColor"/><path d="M80.091,52.273c-1.256,1.256-3.291,1.256-4.547,0L65.435,42.165c-1.256-1.256-1.256-3.291,0-4.547l0,0  c1.256-1.256,3.291-1.256,4.547,0l10.109,10.109C81.346,48.982,81.346,51.018,80.091,52.273L80.091,52.273z" style="" fill="currentColor"/><path d="M65.435,62.382c-1.256-1.256-1.256-3.291,0-4.547l10.109-10.109c1.256-1.256,3.291-1.256,4.547,0l0,0  c1.256,1.256,1.256,3.291,0,4.547L69.982,62.382C68.726,63.638,66.691,63.638,65.435,62.382L65.435,62.382z" style="" fill="currentColor"/></svg>